<svg xmlns="http://www.w3.org/2000/svg" xmlns:xlink="http://www.w3.org/1999/xlink" width="4000" zoomAndPan="magnify" viewBox="0 0 3000 2999.999989" height="4000" preserveAspectRatio="xMidYMid meet" version="1.0"><defs><g/><clipPath id="9c4791dc31"><path d="M 476.238281 133.117188 L 1243.316406 133.117188 L 1243.316406 1078 L 476.238281 1078 Z M 476.238281 133.117188 " clip-rule="nonzero"/></clipPath><clipPath id="718a6a9c39"><path d="M 732.070312 1055.066406 C 771.394531 1068.441406 816.105469 1077.214844 859.984375 1077.214844 C 903.863281 1077.214844 946.089844 1069.691406 985 1056.320312 C 985.832031 1055.902344 986.65625 1055.902344 987.484375 1055.484375 C 1133.617188 1001.988281 1241.246094 860.730469 1243.316406 695.648438 L 1243.316406 133.117188 L 476.238281 133.117188 L 476.238281 695.230469 C 478.308594 861.566406 584.28125 1002.824219 732.070312 1055.066406 Z M 732.070312 1055.066406 " clip-rule="nonzero"/></clipPath><clipPath id="a355ec6d82"><path d="M 0.238281 0.117188 L 767.316406 0.117188 L 767.316406 944 L 0.238281 944 Z M 0.238281 0.117188 " clip-rule="nonzero"/></clipPath><clipPath id="c642ff2d93"><path d="M 256.070312 922.066406 C 295.394531 935.441406 340.105469 944.214844 383.984375 944.214844 C 427.863281 944.214844 470.089844 936.691406 509 923.320312 C 509.832031 922.902344 510.65625 922.902344 511.484375 922.484375 C 657.617188 868.988281 765.246094 727.730469 767.316406 562.648438 L 767.316406 0.117188 L 0.238281 0.117188 L 0.238281 562.230469 C 2.308594 728.566406 108.28125 869.824219 256.070312 922.066406 Z M 256.070312 922.066406 " clip-rule="nonzero"/></clipPath><clipPath id="beec9eaf47"><rect x="0" width="768" y="0" height="945"/></clipPath><clipPath id="739a95ea64"><path d="M 476.238281 133.121094 L 1243.097656 133.121094 L 1243.097656 1077.210938 L 476.238281 1077.210938 Z M 476.238281 133.121094 " clip-rule="nonzero"/></clipPath><clipPath id="2f669aa61f"><path d="M 732.066406 1055.0625 C 771.390625 1068.433594 816.101562 1077.210938 859.980469 1077.210938 C 903.859375 1077.210938 946.085938 1069.6875 984.996094 1056.3125 C 985.824219 1055.894531 986.652344 1055.894531 987.480469 1055.476562 C 1133.609375 1001.984375 1241.242188 860.726562 1243.308594 695.644531 L 1243.308594 133.121094 L 476.238281 133.121094 L 476.238281 695.226562 C 478.308594 861.5625 584.28125 1002.820312 732.066406 1055.0625 Z M 732.066406 1055.0625 " clip-rule="nonzero"/></clipPath><clipPath id="4a83da31af"><path d="M 546.078125 204.085938 L 1184.03125 204.085938 L 1184.03125 1023 L 546.078125 1023 Z M 546.078125 204.085938 " clip-rule="nonzero"/></clipPath><clipPath id="ca0f0bc899"><path d="M 758.84375 1004.15625 C 791.550781 1015.027344 828.734375 1022.164062 865.226562 1022.164062 C 901.722656 1022.164062 936.835938 1016.046875 969.199219 1005.171875 C 969.886719 1004.832031 970.578125 1004.832031 971.265625 1004.492188 C 1092.796875 961 1182.308594 846.140625 1184.03125 710.796875 L 1184.03125 204.085938 L 546.078125 204.085938 L 546.078125 710.421875 C 547.800781 846.820312 635.9375 961.679688 758.84375 1004.15625 Z M 758.84375 1004.15625 " clip-rule="nonzero"/></clipPath><clipPath id="4fa95cf9e2"><path d="M 0.078125 0.0859375 L 638.03125 0.0859375 L 638.03125 818 L 0.078125 818 Z M 0.078125 0.0859375 " clip-rule="nonzero"/></clipPath><clipPath id="2695bcd9f8"><path d="M 212.84375 800.15625 C 245.550781 811.027344 282.734375 818.164062 319.226562 818.164062 C 355.722656 818.164062 390.835938 812.046875 423.199219 801.171875 C 423.886719 800.832031 424.578125 800.832031 425.265625 800.492188 C 546.796875 757 636.308594 642.140625 638.03125 506.796875 L 638.03125 0.0859375 L 0.078125 0.0859375 L 0.078125 506.421875 C 1.800781 642.820312 89.9375 757.679688 212.84375 800.15625 Z M 212.84375 800.15625 " clip-rule="nonzero"/></clipPath><clipPath id="3cbff023f4"><rect x="0" width="639" y="0" height="819"/></clipPath><clipPath id="4e01748ed6"><path d="M 546.078125 204.085938 L 1183.800781 204.085938 L 1183.800781 1022.144531 L 546.078125 1022.144531 Z M 546.078125 204.085938 " clip-rule="nonzero"/></clipPath><clipPath id="5305fb52b0"><path d="M 758.84375 1004.144531 C 791.546875 1015.019531 828.730469 1022.15625 865.222656 1022.15625 C 901.71875 1022.15625 936.832031 1016.039062 969.195312 1005.164062 C 969.882812 1004.824219 970.574219 1004.824219 971.261719 1004.484375 C 1092.789062 960.988281 1182.300781 846.136719 1184.023438 710.789062 L 1184.023438 204.085938 L 546.078125 204.085938 L 546.078125 710.414062 C 547.800781 846.8125 635.9375 961.671875 758.84375 1004.144531 Z M 758.84375 1004.144531 " clip-rule="nonzero"/></clipPath><clipPath id="7154e1f52e"><rect x="0" width="416" y="0" height="605"/></clipPath><clipPath id="d99b11523d"><rect x="0" width="576" y="0" height="175"/></clipPath><clipPath id="a3b8275e06"><path d="M 0.160156 1287 L 1885.839844 1287 L 1885.839844 1395.441406 L 0.160156 1395.441406 Z M 0.160156 1287 " clip-rule="nonzero"/></clipPath><clipPath id="798b46a5d6"><rect x="0" width="1886" y="0" height="109"/></clipPath><clipPath id="531d9ea8cf"><rect x="0" width="1886" y="0" height="1396"/></clipPath></defs><g transform="matrix(1, 0, 0, 1, 674, 610)"><g clip-path="url(#531d9ea8cf)"><g clip-path="url(#9c4791dc31)"><g clip-path="url(#718a6a9c39)"><g transform="matrix(1, 0, 0, 1, 476, 133)"><g clip-path="url(#beec9eaf47)"><g clip-path="url(#a355ec6d82)"><g clip-path="url(#c642ff2d93)"><path fill="#ffffff" d="M 0.238281 0.117188 L 767.316406 0.117188 L 767.316406 943.984375 L 0.238281 943.984375 Z M 0.238281 0.117188 " fill-opacity="1" fill-rule="nonzero"/></g></g></g></g></g></g><g clip-path="url(#739a95ea64)"><g clip-path="url(#2f669aa61f)"><path stroke-linecap="butt" transform="matrix(0.568887, 0, 0, 0.568887, 476.237225, 133.120339)" fill="none" stroke-linejoin="miter" d="M 449.70134 1620.607251 C 518.826191 1644.111211 597.419917 1659.54019 674.551083 1659.54019 C 751.682248 1659.54019 825.908893 1646.315351 894.305897 1622.804524 C 895.761591 1622.069811 897.217284 1622.069811 898.672978 1621.335098 C 1155.541115 1527.305526 1344.740095 1278.999889 1348.372462 988.815593 L 1348.372462 0.00132652 L 0.00185607 0.00132652 L 0.00185607 988.08088 C 3.64109 1280.469316 189.921816 1528.774952 449.70134 1620.607251 Z M 449.70134 1620.607251 " stroke="#000000" stroke-width="110.742577" stroke-opacity="1" stroke-miterlimit="4"/></g></g><g clip-path="url(#4a83da31af)"><g clip-path="url(#ca0f0bc899)"><g transform="matrix(1, 0, 0, 1, 546, 204)"><g clip-path="url(#3cbff023f4)"><g clip-path="url(#4fa95cf9e2)"><g clip-path="url(#2695bcd9f8)"><path fill="#000000" d="M 0.078125 0.0859375 L 638.03125 0.0859375 L 638.03125 817.460938 L 0.078125 817.460938 Z M 0.078125 0.0859375 " fill-opacity="1" fill-rule="nonzero"/></g></g></g></g></g></g><g clip-path="url(#4e01748ed6)"><g clip-path="url(#5305fb52b0)"><path stroke-linecap="butt" transform="matrix(0.568887, 0, 0, 0.568887, 546.08003, 204.087153)" fill="none" stroke-linejoin="miter" d="M 374.000064 1406.355891 C 431.486231 1425.47217 496.848251 1438.017228 560.994904 1438.017228 C 625.148423 1438.017228 686.871209 1427.264321 743.759992 1408.148042 C 744.968493 1407.550658 746.18386 1407.550658 747.39236 1406.953274 C 961.015408 1330.495024 1118.360789 1128.606789 1121.388906 890.690136 L 1121.388906 -0.00213609 L -0.00334898 -0.00213609 L -0.00334898 890.030954 C 3.024769 1129.79469 157.953149 1331.696658 374.000064 1406.355891 Z M 374.000064 1406.355891 " stroke="#000000" stroke-width="73.828384" stroke-opacity="1" stroke-miterlimit="4"/></g></g><g transform="matrix(1, 0, 0, 1, 657, 310)"><g clip-path="url(#7154e1f52e)"><g fill="#ffffff" fill-opacity="1"><g transform="translate(1.123445, 462.615814)"><g><path d="M 6.296875 -5.234375 C 12.753906 -8.035156 20.265625 -9.875 28.828125 -10.75 C 41.234375 -12.144531 50.492188 -15.113281 56.609375 -19.65625 C 61.328125 -29.269531 63.6875 -53.734375 63.6875 -93.046875 L 63.6875 -134.453125 L 64.203125 -159.34375 L 63.6875 -177.6875 L 64.203125 -211.5 L 63.421875 -296.6875 C 63.421875 -306.289062 62.023438 -312.578125 59.234375 -315.546875 C 55.210938 -319.921875 44.550781 -323.941406 27.25 -327.609375 C 20.09375 -329.179688 15.726562 -330.617188 14.15625 -331.921875 C 12.582031 -333.234375 11.617188 -335.726562 11.265625 -339.40625 C 15.285156 -340.269531 18.082031 -340.703125 19.65625 -340.703125 L 38.265625 -340.703125 L 47.96875 -340.96875 C 54.425781 -340.96875 61.585938 -340.269531 69.453125 -338.875 C 85.523438 -337.820312 102.035156 -337.296875 118.984375 -337.296875 C 123.878906 -337.296875 130.867188 -337.5625 139.953125 -338.09375 C 164.066406 -339.488281 181.363281 -340.1875 191.84375 -340.1875 C 212.988281 -340.1875 232.953125 -338.085938 251.734375 -333.890625 C 270.515625 -329.703125 289.863281 -321.929688 309.78125 -310.578125 C 322.1875 -303.410156 334.894531 -292.09375 347.90625 -276.625 C 360.925781 -261.164062 370.800781 -244.304688 377.53125 -226.046875 C 384.257812 -207.785156 387.625 -187.210938 387.625 -164.328125 C 387.625 -143.878906 383.910156 -123.609375 376.484375 -103.515625 C 369.054688 -83.429688 358.703125 -66.003906 345.421875 -51.234375 C 332.148438 -36.472656 318.695312 -25.378906 305.0625 -17.953125 C 291.4375 -10.523438 270.644531 -4.101562 242.6875 1.3125 C 231.15625 3.40625 210.453125 4.453125 180.578125 4.453125 C 160.835938 4.453125 144.765625 3.84375 132.359375 2.625 C 127.460938 1.925781 122.21875 1.578125 116.625 1.578125 C 115.75 1.578125 114.789062 1.660156 113.75 1.828125 L 6.8125 3.671875 L 6.296875 1.578125 C 5.941406 0.703125 5.765625 -0.257812 5.765625 -1.3125 Z M 139.6875 -15.46875 C 152.96875 -10.925781 166.421875 -8.65625 180.046875 -8.65625 C 197.691406 -8.65625 214.988281 -11.40625 231.9375 -16.90625 C 248.894531 -22.40625 263.878906 -30.175781 276.890625 -40.21875 C 289.910156 -50.269531 300.613281 -61.628906 309 -74.296875 C 317.382812 -86.960938 323.320312 -98.363281 326.8125 -108.5 C 331.707031 -123.351562 334.15625 -142.660156 334.15625 -166.421875 C 334.15625 -189.140625 329.351562 -212.203125 319.75 -235.609375 C 313.101562 -251.859375 301.4375 -267.410156 284.75 -282.265625 C 268.0625 -297.117188 248.359375 -307.992188 225.640625 -314.890625 C 202.929688 -321.796875 178.390625 -325.25 152.015625 -325.25 C 133.835938 -325.25 120.378906 -323.238281 111.640625 -319.21875 C 110.597656 -318.164062 109.550781 -316.941406 108.5 -315.546875 C 107.457031 -311.179688 106.9375 -307.164062 106.9375 -303.5 C 106.9375 -301.226562 107.019531 -298.519531 107.1875 -295.375 C 107.71875 -275.101562 107.984375 -258.851562 107.984375 -246.625 L 107.71875 -187.125 C 107.71875 -99.769531 109.332031 -51.15625 112.5625 -41.28125 C 115.800781 -31.40625 124.84375 -22.800781 139.6875 -15.46875 Z M 139.6875 -15.46875 "/></g></g></g></g></g><g transform="matrix(1, 0, 0, 1, 572, 1076)"><g clip-path="url(#d99b11523d)"><g fill="#d40202" fill-opacity="1"><g transform="translate(0.494793, 132.316189)"><g><path d="M 46.9375 0.578125 C 43.875 0.578125 40.226562 0.429688 36 0.140625 C 34.46875 0.046875 32.570312 -0.046875 30.3125 -0.140625 C 28.050781 -0.234375 25.53125 -0.28125 22.75 -0.28125 L 12.09375 -0.140625 C 10.175781 -0.046875 7.582031 0 4.3125 0 C 4.125 0 4.03125 -0.285156 4.03125 -0.859375 C 4.03125 -1.441406 4.125 -1.734375 4.3125 -1.734375 C 7.382812 -1.734375 9.640625 -1.972656 11.078125 -2.453125 C 12.523438 -2.929688 13.507812 -3.863281 14.03125 -5.25 C 14.5625 -6.644531 14.828125 -8.78125 14.828125 -11.65625 L 14.828125 -78.34375 C 14.828125 -81.21875 14.5625 -83.328125 14.03125 -84.671875 C 13.507812 -86.015625 12.550781 -86.945312 11.15625 -87.46875 C 9.769531 -88 7.585938 -88.265625 4.609375 -88.265625 C 4.316406 -88.265625 4.171875 -88.550781 4.171875 -89.125 C 4.171875 -89.707031 4.316406 -90 4.609375 -90 L 12.234375 -89.859375 C 16.648438 -89.660156 20.15625 -89.5625 22.75 -89.5625 C 26.6875 -89.5625 30.71875 -89.707031 34.84375 -90 C 39.84375 -90.1875 43.203125 -90.28125 44.921875 -90.28125 C 54.617188 -90.28125 63.234375 -88.359375 70.765625 -84.515625 C 78.304688 -80.679688 84.140625 -75.453125 88.265625 -68.828125 C 92.398438 -62.203125 94.46875 -54.765625 94.46875 -46.515625 C 94.46875 -37.203125 92.328125 -28.96875 88.046875 -21.8125 C 83.773438 -14.664062 78.015625 -9.144531 70.765625 -5.25 C 63.523438 -1.363281 55.582031 0.578125 46.9375 0.578125 Z M 45.5 -2.734375 C 51.644531 -2.734375 57.066406 -4.289062 61.765625 -7.40625 C 66.472656 -10.53125 70.144531 -15.164062 72.78125 -21.3125 C 75.425781 -27.457031 76.75 -34.800781 76.75 -43.34375 C 76.75 -51.5 75.5 -58.910156 73 -65.578125 C 70.507812 -72.253906 66.957031 -77.515625 62.34375 -81.359375 C 57.738281 -85.203125 52.414062 -87.125 46.375 -87.125 C 40.414062 -87.125 36.332031 -86.546875 34.125 -85.390625 C 31.914062 -84.234375 30.8125 -81.785156 30.8125 -78.046875 L 30.8125 -13.25 C 30.8125 -9.40625 31.816406 -6.691406 33.828125 -5.109375 C 35.847656 -3.523438 39.738281 -2.734375 45.5 -2.734375 Z M 45.5 -2.734375 "/></g></g></g><g fill="#d40202" fill-opacity="1"><g transform="translate(102.014743, 132.316189)"><g><path d="M 32.6875 -11.65625 C 32.6875 -8.6875 32.925781 -6.53125 33.40625 -5.1875 C 33.882812 -3.84375 34.816406 -2.929688 36.203125 -2.453125 C 37.597656 -1.972656 39.832031 -1.734375 42.90625 -1.734375 C 43.195312 -1.734375 43.34375 -1.441406 43.34375 -0.859375 C 43.34375 -0.285156 43.195312 0 42.90625 0 C 39.738281 0 37.242188 -0.046875 35.421875 -0.140625 L 24.484375 -0.28125 L 13.828125 -0.140625 C 11.898438 -0.046875 9.304688 0 6.046875 0 C 5.859375 0 5.765625 -0.285156 5.765625 -0.859375 C 5.765625 -1.441406 5.859375 -1.734375 6.046875 -1.734375 C 9.117188 -1.734375 11.375 -1.972656 12.8125 -2.453125 C 14.25 -2.929688 15.234375 -3.863281 15.765625 -5.25 C 16.296875 -6.644531 16.5625 -8.78125 16.5625 -11.65625 L 16.5625 -78.34375 C 16.5625 -81.21875 16.296875 -83.328125 15.765625 -84.671875 C 15.234375 -86.015625 14.25 -86.945312 12.8125 -87.46875 C 11.375 -88 9.117188 -88.265625 6.046875 -88.265625 C 5.859375 -88.265625 5.765625 -88.550781 5.765625 -89.125 C 5.765625 -89.707031 5.859375 -90 6.046875 -90 L 13.828125 -89.859375 C 18.242188 -89.660156 21.796875 -89.5625 24.484375 -89.5625 C 27.453125 -89.5625 31.144531 -89.660156 35.5625 -89.859375 L 42.90625 -90 C 43.195312 -90 43.34375 -89.707031 43.34375 -89.125 C 43.34375 -88.550781 43.195312 -88.265625 42.90625 -88.265625 C 39.9375 -88.265625 37.726562 -87.976562 36.28125 -87.40625 C 34.84375 -86.832031 33.882812 -85.847656 33.40625 -84.453125 C 32.925781 -83.066406 32.6875 -80.929688 32.6875 -78.046875 Z M 32.6875 -11.65625 "/></g></g></g><g fill="#d40202" fill-opacity="1"><g transform="translate(151.262719, 132.316189)"><g><path d="M 95.765625 -90 C 96.046875 -90 96.1875 -89.707031 96.1875 -89.125 C 96.1875 -88.550781 96.046875 -88.265625 95.765625 -88.265625 C 92.304688 -88.265625 88.992188 -86.726562 85.828125 -83.65625 C 82.660156 -80.59375 80.113281 -76.46875 78.1875 -71.28125 L 51.546875 -0.140625 C 51.453125 0.242188 50.925781 0.4375 49.96875 0.4375 C 49.007812 0.4375 48.484375 0.242188 48.390625 -0.140625 L 11.65625 -78.046875 C 9.9375 -81.503906 8.210938 -84.070312 6.484375 -85.75 C 4.753906 -87.425781 2.832031 -88.265625 0.71875 -88.265625 C 0.425781 -88.265625 0.28125 -88.550781 0.28125 -89.125 C 0.28125 -89.707031 0.425781 -90 0.71875 -90 C 2.15625 -90 3.164062 -89.953125 3.75 -89.859375 C 5.664062 -89.660156 8.160156 -89.5625 11.234375 -89.5625 C 19.484375 -89.5625 26.488281 -89.660156 32.25 -89.859375 C 33.789062 -89.953125 35.710938 -90 38.015625 -90 C 38.304688 -90 38.453125 -89.707031 38.453125 -89.125 C 38.453125 -88.550781 38.304688 -88.265625 38.015625 -88.265625 C 35.140625 -88.265625 32.90625 -87.664062 31.3125 -86.46875 C 29.726562 -85.269531 28.9375 -83.566406 28.9375 -81.359375 C 28.9375 -79.722656 29.46875 -77.753906 30.53125 -75.453125 L 55.4375 -22.3125 L 74.15625 -71.71875 C 75.113281 -74.40625 75.59375 -76.707031 75.59375 -78.625 C 75.59375 -81.601562 74.703125 -83.953125 72.921875 -85.671875 C 71.148438 -87.398438 68.585938 -88.265625 65.234375 -88.265625 C 64.941406 -88.265625 64.796875 -88.550781 64.796875 -89.125 C 64.796875 -89.707031 64.941406 -90 65.234375 -90 L 72.28125 -89.859375 C 76.320312 -89.660156 79.925781 -89.5625 83.09375 -89.5625 C 84.914062 -89.5625 87.171875 -89.660156 89.859375 -89.859375 Z M 95.765625 -90 "/></g></g></g><g fill="#d40202" fill-opacity="1"><g transform="translate(246.302659, 132.316189)"><g><path d="M 32.6875 -11.65625 C 32.6875 -8.6875 32.925781 -6.53125 33.40625 -5.1875 C 33.882812 -3.84375 34.816406 -2.929688 36.203125 -2.453125 C 37.597656 -1.972656 39.832031 -1.734375 42.90625 -1.734375 C 43.195312 -1.734375 43.34375 -1.441406 43.34375 -0.859375 C 43.34375 -0.285156 43.195312 0 42.90625 0 C 39.738281 0 37.242188 -0.046875 35.421875 -0.140625 L 24.484375 -0.28125 L 13.828125 -0.140625 C 11.898438 -0.046875 9.304688 0 6.046875 0 C 5.859375 0 5.765625 -0.285156 5.765625 -0.859375 C 5.765625 -1.441406 5.859375 -1.734375 6.046875 -1.734375 C 9.117188 -1.734375 11.375 -1.972656 12.8125 -2.453125 C 14.25 -2.929688 15.234375 -3.863281 15.765625 -5.25 C 16.296875 -6.644531 16.5625 -8.78125 16.5625 -11.65625 L 16.5625 -78.34375 C 16.5625 -81.21875 16.296875 -83.328125 15.765625 -84.671875 C 15.234375 -86.015625 14.25 -86.945312 12.8125 -87.46875 C 11.375 -88 9.117188 -88.265625 6.046875 -88.265625 C 5.859375 -88.265625 5.765625 -88.550781 5.765625 -89.125 C 5.765625 -89.707031 5.859375 -90 6.046875 -90 L 13.828125 -89.859375 C 18.242188 -89.660156 21.796875 -89.5625 24.484375 -89.5625 C 27.453125 -89.5625 31.144531 -89.660156 35.5625 -89.859375 L 42.90625 -90 C 43.195312 -90 43.34375 -89.707031 43.34375 -89.125 C 43.34375 -88.550781 43.195312 -88.265625 42.90625 -88.265625 C 39.9375 -88.265625 37.726562 -87.976562 36.28125 -87.40625 C 34.84375 -86.832031 33.882812 -85.847656 33.40625 -84.453125 C 32.925781 -83.066406 32.6875 -80.929688 32.6875 -78.046875 Z M 32.6875 -11.65625 "/></g></g><g transform="translate(295.550656, 132.316189)"><g><path d="M 104.109375 -90 C 104.304688 -90 104.40625 -89.707031 104.40625 -89.125 C 104.40625 -88.550781 104.304688 -88.265625 104.109375 -88.265625 C 100.273438 -88.265625 97.253906 -86.753906 95.046875 -83.734375 C 92.835938 -80.710938 91.734375 -76.65625 91.734375 -71.5625 L 91.734375 2.15625 C 91.734375 2.445312 91.515625 2.640625 91.078125 2.734375 C 90.648438 2.828125 90.335938 2.78125 90.140625 2.59375 L 22.609375 -74.296875 L 22.609375 -18.28125 C 22.609375 -13.195312 23.660156 -9.164062 25.765625 -6.1875 C 27.878906 -3.21875 30.8125 -1.734375 34.5625 -1.734375 C 34.75 -1.734375 34.84375 -1.441406 34.84375 -0.859375 C 34.84375 -0.285156 34.75 0 34.5625 0 C 31.875 0 29.8125 -0.046875 28.375 -0.140625 L 20.59375 -0.28125 L 11.65625 -0.140625 C 10.03125 -0.046875 7.679688 0 4.609375 0 C 4.316406 0 4.171875 -0.285156 4.171875 -0.859375 C 4.171875 -1.441406 4.316406 -1.734375 4.609375 -1.734375 C 8.828125 -1.734375 12.160156 -3.21875 14.609375 -6.1875 C 17.054688 -9.164062 18.28125 -13.195312 18.28125 -18.28125 L 18.28125 -79.203125 C 15.113281 -82.660156 12.398438 -85.035156 10.140625 -86.328125 C 7.890625 -87.617188 5.566406 -88.265625 3.171875 -88.265625 C 2.972656 -88.265625 2.875 -88.550781 2.875 -89.125 C 2.875 -89.707031 2.972656 -90 3.171875 -90 L 9.21875 -89.859375 C 10.46875 -89.765625 12.289062 -89.71875 14.6875 -89.71875 L 25.625 -89.859375 C 26.96875 -89.953125 28.601562 -90 30.53125 -90 C 31.300781 -90 31.875 -89.804688 32.25 -89.421875 C 32.632812 -89.035156 33.304688 -88.21875 34.265625 -86.96875 C 35.898438 -84.757812 37.054688 -83.273438 37.734375 -82.515625 L 87.546875 -25.0625 L 87.546875 -71.5625 C 87.546875 -76.75 86.488281 -80.828125 84.375 -83.796875 C 82.269531 -86.773438 79.34375 -88.265625 75.59375 -88.265625 C 75.40625 -88.265625 75.3125 -88.550781 75.3125 -89.125 C 75.3125 -89.707031 75.40625 -90 75.59375 -90 L 81.796875 -89.859375 C 84.867188 -89.660156 87.457031 -89.5625 89.5625 -89.5625 C 91.488281 -89.5625 94.175781 -89.660156 97.625 -89.859375 Z M 104.109375 -90 "/></g></g></g><g fill="#d40202" fill-opacity="1"><g transform="translate(401.390607, 132.316189)"><g><path d="M 82.21875 -71.5625 C 82.21875 -76.75 81.039062 -80.828125 78.6875 -83.796875 C 76.34375 -86.773438 73.054688 -88.265625 68.828125 -88.265625 C 68.640625 -88.265625 68.546875 -88.550781 68.546875 -89.125 C 68.546875 -89.707031 68.640625 -90 68.828125 -90 L 75.75 -89.859375 C 79.394531 -89.660156 82.320312 -89.5625 84.53125 -89.5625 C 86.351562 -89.5625 88.992188 -89.660156 92.453125 -89.859375 L 99.078125 -90 C 99.265625 -90 99.359375 -89.707031 99.359375 -89.125 C 99.359375 -88.550781 99.265625 -88.265625 99.078125 -88.265625 C 95.328125 -88.265625 92.394531 -86.773438 90.28125 -83.796875 C 88.175781 -80.828125 87.125 -76.75 87.125 -71.5625 L 87.125 -31.53125 C 87.125 -24.8125 85.632812 -18.90625 82.65625 -13.8125 C 79.675781 -8.726562 75.472656 -4.816406 70.046875 -2.078125 C 64.628906 0.648438 58.367188 2.015625 51.265625 2.015625 C 44.160156 2.015625 37.867188 0.671875 32.390625 -2.015625 C 26.921875 -4.703125 22.625 -8.613281 19.5 -13.75 C 16.382812 -18.882812 14.828125 -24.910156 14.828125 -31.828125 L 14.828125 -78.34375 C 14.828125 -81.21875 14.5625 -83.328125 14.03125 -84.671875 C 13.507812 -86.015625 12.550781 -86.945312 11.15625 -87.46875 C 9.769531 -88 7.585938 -88.265625 4.609375 -88.265625 C 4.316406 -88.265625 4.171875 -88.550781 4.171875 -89.125 C 4.171875 -89.707031 4.316406 -90 4.609375 -90 L 12.234375 -89.859375 C 16.648438 -89.660156 20.15625 -89.5625 22.75 -89.5625 C 25.632812 -89.5625 29.285156 -89.660156 33.703125 -89.859375 L 41.046875 -90 C 41.328125 -90 41.46875 -89.707031 41.46875 -89.125 C 41.46875 -88.550781 41.328125 -88.265625 41.046875 -88.265625 C 38.066406 -88.265625 35.878906 -87.976562 34.484375 -87.40625 C 33.097656 -86.832031 32.140625 -85.847656 31.609375 -84.453125 C 31.078125 -83.066406 30.8125 -80.929688 30.8125 -78.046875 L 30.8125 -36.859375 C 30.8125 -25.441406 33.066406 -16.992188 37.578125 -11.515625 C 42.097656 -6.046875 48.484375 -3.3125 56.734375 -3.3125 C 64.703125 -3.3125 70.941406 -5.734375 75.453125 -10.578125 C 79.960938 -15.429688 82.21875 -22.367188 82.21875 -31.390625 Z M 82.21875 -71.5625 "/></g></g></g><g fill="#d40202" fill-opacity="1"><g transform="translate(500.894554, 132.316189)"><g><path d="M 25.0625 -75.453125 C 25.0625 -71.992188 25.945312 -68.921875 27.71875 -66.234375 C 29.5 -63.546875 31.679688 -61.191406 34.265625 -59.171875 C 36.859375 -57.160156 40.363281 -54.71875 44.78125 -51.84375 C 49.582031 -48.769531 53.421875 -46.078125 56.296875 -43.765625 C 59.179688 -41.460938 61.628906 -38.65625 63.640625 -35.34375 C 65.660156 -32.039062 66.671875 -28.226562 66.671875 -23.90625 C 66.671875 -18.914062 65.328125 -14.472656 62.640625 -10.578125 C 59.953125 -6.691406 56.234375 -3.664062 51.484375 -1.5 C 46.734375 0.65625 41.425781 1.734375 35.5625 1.734375 C 31.25 1.734375 26.738281 1.132812 22.03125 -0.0625 C 17.320312 -1.269531 14.15625 -2.59375 12.53125 -4.03125 C 12.050781 -4.414062 11.691406 -4.773438 11.453125 -5.109375 C 11.210938 -5.441406 11.09375 -5.992188 11.09375 -6.765625 L 10.65625 -29.65625 L 10.65625 -29.8125 C 10.65625 -30.195312 10.894531 -30.410156 11.375 -30.453125 C 11.851562 -30.503906 12.140625 -30.335938 12.234375 -29.953125 C 15.117188 -24.097656 17.640625 -19.34375 19.796875 -15.6875 C 21.960938 -12.039062 24.695312 -8.828125 28 -6.046875 C 31.3125 -3.265625 35.082031 -1.875 39.3125 -1.875 C 43.15625 -1.875 46.320312 -2.90625 48.8125 -4.96875 C 51.3125 -7.03125 52.5625 -10.554688 52.5625 -15.546875 C 52.5625 -19.773438 51.625 -23.472656 49.75 -26.640625 C 47.875 -29.804688 45.59375 -32.492188 42.90625 -34.703125 C 40.21875 -36.910156 36.523438 -39.550781 31.828125 -42.625 C 27.210938 -45.601562 23.632812 -48.144531 21.09375 -50.25 C 18.550781 -52.363281 16.367188 -54.910156 14.546875 -57.890625 C 12.722656 -60.867188 11.8125 -64.375 11.8125 -68.40625 C 11.8125 -73.488281 13.273438 -77.78125 16.203125 -81.28125 C 19.128906 -84.789062 22.894531 -87.382812 27.5 -89.0625 C 32.113281 -90.738281 36.960938 -91.578125 42.046875 -91.578125 C 45.410156 -91.578125 48.816406 -91.265625 52.265625 -90.640625 C 55.722656 -90.023438 58.507812 -89.285156 60.625 -88.421875 C 61.488281 -88.035156 62.0625 -87.625 62.34375 -87.1875 C 62.632812 -86.757812 62.78125 -86.207031 62.78125 -85.53125 L 62.78125 -64.375 C 62.78125 -64.082031 62.539062 -63.863281 62.0625 -63.71875 C 61.582031 -63.570312 61.296875 -63.644531 61.203125 -63.9375 L 60.046875 -66.671875 C 57.648438 -72.722656 54.84375 -77.859375 51.625 -82.078125 C 48.40625 -86.304688 43.914062 -88.421875 38.15625 -88.421875 C 34.320312 -88.421875 31.179688 -87.316406 28.734375 -85.109375 C 26.285156 -82.898438 25.0625 -79.679688 25.0625 -75.453125 Z M 25.0625 -75.453125 "/></g></g></g></g></g><g clip-path="url(#a3b8275e06)"><g transform="matrix(1, 0, 0, 1, 0, 1287)"><g clip-path="url(#798b46a5d6)"><g fill="#d40202" fill-opacity="1"><g transform="translate(0.630424, 85.80208)"><g><path d="M 7.296875 -61.59375 L 21.5625 -61.59375 L 21.5625 0 L 7.296875 0 Z M 7.296875 -61.59375 "/></g></g></g><g fill="#d40202" fill-opacity="1"><g transform="translate(86.868987, 85.80208)"><g><path d="M 63.796875 -61.59375 L 63.796875 0 L 52.09375 0 L 21.390625 -37.40625 L 21.390625 0 L 7.296875 0 L 7.296875 -61.59375 L 19.09375 -61.59375 L 49.71875 -24.203125 L 49.71875 -61.59375 Z M 63.796875 -61.59375 "/></g></g></g><g fill="#d40202" fill-opacity="1"><g transform="translate(214.993701, 85.80208)"><g><path d="M 66.53125 -61.59375 L 39.859375 0 L 25.78125 0 L -0.796875 -61.59375 L 14.609375 -61.59375 L 33.359375 -17.59375 L 52.359375 -61.59375 Z M 66.53125 -61.59375 "/></g></g></g><g fill="#d40202" fill-opacity="1"><g transform="translate(336.694677, 85.80208)"><g><path d="M 55 -11.4375 L 55 0 L 7.296875 0 L 7.296875 -61.59375 L 53.859375 -61.59375 L 53.859375 -50.15625 L 21.46875 -50.15625 L 21.46875 -36.78125 L 50.078125 -36.78125 L 50.078125 -25.703125 L 21.46875 -25.703125 L 21.46875 -11.4375 Z M 55 -11.4375 "/></g></g></g><g fill="#d40202" fill-opacity="1"><g transform="translate(453.115922, 85.80208)"><g><path d="M 27.546875 1.0625 C 22.671875 1.0625 17.957031 0.398438 13.40625 -0.921875 C 8.863281 -2.242188 5.21875 -3.960938 2.46875 -6.078125 L 7.296875 -16.8125 C 9.941406 -14.875 13.082031 -13.316406 16.71875 -12.140625 C 20.351562 -10.972656 23.988281 -10.390625 27.625 -10.390625 C 31.675781 -10.390625 34.671875 -10.988281 36.609375 -12.1875 C 38.546875 -13.382812 39.515625 -14.984375 39.515625 -16.984375 C 39.515625 -18.453125 38.941406 -19.671875 37.796875 -20.640625 C 36.648438 -21.609375 35.179688 -22.382812 33.390625 -22.96875 C 31.609375 -23.550781 29.191406 -24.195312 26.140625 -24.90625 C 21.441406 -26.019531 17.597656 -27.132812 14.609375 -28.25 C 11.617188 -29.363281 9.050781 -31.148438 6.90625 -33.609375 C 4.769531 -36.078125 3.703125 -39.363281 3.703125 -43.46875 C 3.703125 -47.050781 4.664062 -50.289062 6.59375 -53.1875 C 8.53125 -56.09375 11.445312 -58.394531 15.34375 -60.09375 C 19.25 -61.800781 24.019531 -62.65625 29.65625 -62.65625 C 33.582031 -62.65625 37.421875 -62.1875 41.171875 -61.25 C 44.929688 -60.3125 48.222656 -58.960938 51.046875 -57.203125 L 46.640625 -46.375 C 40.953125 -49.601562 35.257812 -51.21875 29.5625 -51.21875 C 25.570312 -51.21875 22.625 -50.570312 20.71875 -49.28125 C 18.8125 -47.988281 17.859375 -46.285156 17.859375 -44.171875 C 17.859375 -42.066406 18.957031 -40.5 21.15625 -39.46875 C 23.363281 -38.4375 26.722656 -37.425781 31.234375 -36.4375 C 35.929688 -35.320312 39.773438 -34.207031 42.765625 -33.09375 C 45.753906 -31.976562 48.320312 -30.21875 50.46875 -27.8125 C 52.613281 -25.40625 53.6875 -22.148438 53.6875 -18.046875 C 53.6875 -14.523438 52.703125 -11.3125 50.734375 -8.40625 C 48.765625 -5.5 45.8125 -3.191406 41.875 -1.484375 C 37.945312 0.210938 33.171875 1.0625 27.546875 1.0625 Z M 27.546875 1.0625 "/></g></g></g><g fill="#d40202" fill-opacity="1"><g transform="translate(565.753292, 85.80208)"><g><path d="M 20.0625 -49.984375 L 0.359375 -49.984375 L 0.359375 -61.59375 L 54.03125 -61.59375 L 54.03125 -49.984375 L 34.3125 -49.984375 L 34.3125 0 L 20.0625 0 Z M 20.0625 -49.984375 "/></g></g></g><g fill="#d40202" fill-opacity="1"><g transform="translate(677.510748, 85.80208)"><g><path d="M 63.359375 0 L 63.265625 -36.953125 L 45.140625 -6.515625 L 38.71875 -6.515625 L 20.6875 -36.171875 L 20.6875 0 L 7.296875 0 L 7.296875 -61.59375 L 19.09375 -61.59375 L 42.15625 -23.3125 L 64.859375 -61.59375 L 76.5625 -61.59375 L 76.734375 0 Z M 63.359375 0 "/></g></g></g><g fill="#d40202" fill-opacity="1"><g transform="translate(818.922867, 85.80208)"><g><path d="M 55 -11.4375 L 55 0 L 7.296875 0 L 7.296875 -61.59375 L 53.859375 -61.59375 L 53.859375 -50.15625 L 21.46875 -50.15625 L 21.46875 -36.78125 L 50.078125 -36.78125 L 50.078125 -25.703125 L 21.46875 -25.703125 L 21.46875 -11.4375 Z M 55 -11.4375 "/></g></g></g><g fill="#d40202" fill-opacity="1"><g transform="translate(935.344065, 85.80208)"><g><path d="M 63.796875 -61.59375 L 63.796875 0 L 52.09375 0 L 21.390625 -37.40625 L 21.390625 0 L 7.296875 0 L 7.296875 -61.59375 L 19.09375 -61.59375 L 49.71875 -24.203125 L 49.71875 -61.59375 Z M 63.796875 -61.59375 "/></g></g></g><g fill="#d40202" fill-opacity="1"><g transform="translate(1063.820837, 85.80208)"><g><path d="M 20.0625 -49.984375 L 0.359375 -49.984375 L 0.359375 -61.59375 L 54.03125 -61.59375 L 54.03125 -49.984375 L 34.3125 -49.984375 L 34.3125 0 L 20.0625 0 Z M 20.0625 -49.984375 "/></g></g></g><g fill="#d40202" fill-opacity="1"><g transform="translate(1175.578248, 85.80208)"><g/></g></g><g fill="#d40202" fill-opacity="1"><g transform="translate(1257.856961, 85.80208)"><g><path d="M 48.921875 -31.765625 L 61.953125 -31.765625 L 61.953125 -6.78125 C 58.609375 -4.25 54.734375 -2.304688 50.328125 -0.953125 C 45.929688 0.390625 41.503906 1.0625 37.046875 1.0625 C 30.648438 1.0625 24.898438 -0.300781 19.796875 -3.03125 C 14.691406 -5.757812 10.6875 -9.539062 7.78125 -14.375 C 4.882812 -19.21875 3.4375 -24.691406 3.4375 -30.796875 C 3.4375 -36.898438 4.882812 -42.367188 7.78125 -47.203125 C 10.6875 -52.046875 14.71875 -55.832031 19.875 -58.5625 C 25.039062 -61.289062 30.851562 -62.65625 37.3125 -62.65625 C 42.707031 -62.65625 47.601562 -61.742188 52 -59.921875 C 56.40625 -58.109375 60.101562 -55.472656 63.09375 -52.015625 L 53.9375 -43.5625 C 49.539062 -48.195312 44.234375 -50.515625 38.015625 -50.515625 C 34.085938 -50.515625 30.597656 -49.691406 27.546875 -48.046875 C 24.492188 -46.398438 22.113281 -44.082031 20.40625 -41.09375 C 18.707031 -38.101562 17.859375 -34.671875 17.859375 -30.796875 C 17.859375 -26.984375 18.707031 -23.582031 20.40625 -20.59375 C 22.113281 -17.601562 24.476562 -15.269531 27.5 -13.59375 C 30.519531 -11.925781 33.96875 -11.09375 37.84375 -11.09375 C 41.945312 -11.09375 45.640625 -11.972656 48.921875 -13.734375 Z M 48.921875 -31.765625 "/></g></g></g><g fill="#d40202" fill-opacity="1"><g transform="translate(1383.077842, 85.80208)"><g><path d="M 46.546875 0 L 34.671875 -17.15625 L 21.5625 -17.15625 L 21.5625 0 L 7.296875 0 L 7.296875 -61.59375 L 33.96875 -61.59375 C 39.425781 -61.59375 44.160156 -60.679688 48.171875 -58.859375 C 52.191406 -57.046875 55.285156 -54.46875 57.453125 -51.125 C 59.628906 -47.78125 60.71875 -43.820312 60.71875 -39.25 C 60.71875 -34.675781 59.617188 -30.726562 57.421875 -27.40625 C 55.222656 -24.09375 52.097656 -21.554688 48.046875 -19.796875 L 61.859375 0 Z M 46.28125 -39.25 C 46.28125 -42.707031 45.164062 -45.359375 42.9375 -47.203125 C 40.707031 -49.054688 37.453125 -49.984375 33.171875 -49.984375 L 21.5625 -49.984375 L 21.5625 -28.515625 L 33.171875 -28.515625 C 37.453125 -28.515625 40.707031 -29.453125 42.9375 -31.328125 C 45.164062 -33.203125 46.28125 -35.84375 46.28125 -39.25 Z M 46.28125 -39.25 "/></g></g></g><g fill="#d40202" fill-opacity="1"><g transform="translate(1505.130815, 85.80208)"><g><path d="M 37.140625 1.0625 C 30.742188 1.0625 24.976562 -0.316406 19.84375 -3.078125 C 14.707031 -5.835938 10.6875 -9.632812 7.78125 -14.46875 C 4.882812 -19.3125 3.4375 -24.753906 3.4375 -30.796875 C 3.4375 -36.835938 4.882812 -42.28125 7.78125 -47.125 C 10.6875 -51.96875 14.707031 -55.765625 19.84375 -58.515625 C 24.976562 -61.273438 30.742188 -62.65625 37.140625 -62.65625 C 43.535156 -62.65625 49.285156 -61.273438 54.390625 -58.515625 C 59.492188 -55.765625 63.507812 -51.96875 66.4375 -47.125 C 69.375 -42.28125 70.84375 -36.835938 70.84375 -30.796875 C 70.84375 -24.753906 69.375 -19.3125 66.4375 -14.46875 C 63.507812 -9.632812 59.492188 -5.835938 54.390625 -3.078125 C 49.285156 -0.316406 43.535156 1.0625 37.140625 1.0625 Z M 37.140625 -11.09375 C 40.773438 -11.09375 44.054688 -11.925781 46.984375 -13.59375 C 49.921875 -15.269531 52.222656 -17.601562 53.890625 -20.59375 C 55.566406 -23.582031 56.40625 -26.984375 56.40625 -30.796875 C 56.40625 -34.609375 55.566406 -38.007812 53.890625 -41 C 52.222656 -44 49.921875 -46.332031 46.984375 -48 C 44.054688 -49.675781 40.773438 -50.515625 37.140625 -50.515625 C 33.503906 -50.515625 30.21875 -49.675781 27.28125 -48 C 24.34375 -46.332031 22.035156 -44 20.359375 -41 C 18.691406 -38.007812 17.859375 -34.609375 17.859375 -30.796875 C 17.859375 -26.984375 18.691406 -23.582031 20.359375 -20.59375 C 22.035156 -17.601562 24.34375 -15.269531 27.28125 -13.59375 C 30.21875 -11.925781 33.503906 -11.09375 37.140625 -11.09375 Z M 37.140625 -11.09375 "/></g></g></g><g fill="#d40202" fill-opacity="1"><g transform="translate(1636.775309, 85.80208)"><g><path d="M 34.671875 1.0625 C 25.867188 1.0625 19.019531 -1.367188 14.125 -6.234375 C 9.226562 -11.109375 6.78125 -18.066406 6.78125 -27.109375 L 6.78125 -61.59375 L 21.03125 -61.59375 L 21.03125 -27.625 C 21.03125 -16.601562 25.609375 -11.09375 34.765625 -11.09375 C 39.222656 -11.09375 42.625 -12.425781 44.96875 -15.09375 C 47.3125 -17.757812 48.484375 -21.9375 48.484375 -27.625 L 48.484375 -61.59375 L 62.5625 -61.59375 L 62.5625 -27.109375 C 62.5625 -18.066406 60.113281 -11.109375 55.21875 -6.234375 C 50.320312 -1.367188 43.472656 1.0625 34.671875 1.0625 Z M 34.671875 1.0625 "/></g></g></g><g fill="#d40202" fill-opacity="1"><g transform="translate(1763.492161, 85.80208)"><g><path d="M 33.96875 -61.59375 C 39.425781 -61.59375 44.160156 -60.679688 48.171875 -58.859375 C 52.191406 -57.046875 55.285156 -54.46875 57.453125 -51.125 C 59.628906 -47.78125 60.71875 -43.820312 60.71875 -39.25 C 60.71875 -34.726562 59.628906 -30.78125 57.453125 -27.40625 C 55.285156 -24.039062 52.191406 -21.460938 48.171875 -19.671875 C 44.160156 -17.878906 39.425781 -16.984375 33.96875 -16.984375 L 21.5625 -16.984375 L 21.5625 0 L 7.296875 0 L 7.296875 -61.59375 Z M 33.171875 -28.59375 C 37.453125 -28.59375 40.707031 -29.515625 42.9375 -31.359375 C 45.164062 -33.210938 46.28125 -35.84375 46.28125 -39.25 C 46.28125 -42.707031 45.164062 -45.359375 42.9375 -47.203125 C 40.707031 -49.054688 37.453125 -49.984375 33.171875 -49.984375 L 21.5625 -49.984375 L 21.5625 -28.59375 Z M 33.171875 -28.59375 "/></g></g></g></g></g></g></g></g></svg>